<?xml version="1.0" encoding="utf-8"?>
<!-- Generator: Adobe Illustrator 23.0.6, SVG Export Plug-In . SVG Version: 6.00 Build 0)  -->
<svg version="1.1" id="Capa_1" xmlns="http://www.w3.org/2000/svg" xmlns:xlink="http://www.w3.org/1999/xlink" x="0px" y="0px"
	 viewBox="0 0 494 80" style="enable-background:new 0 0 494 80;" xml:space="preserve">
<style type="text/css">
	.st0{fill:none;}
	.st1{enable-background:new    ;}
	.st2{fill:#FFFFFF;}
	.st3{fill:#FE4918;}
</style>
<rect x="35" y="16.1" class="st0" width="585" height="71"/>
<g class="st1">
	<path class="st2" d="M81.2,16.1c1-0.1,2.1-0.3,3.4-0.4c1.3-0.1,2.6-0.2,3.9-0.2c1.3,0,2.7-0.1,3.9-0.1c1.3,0,2.4,0,3.4,0
		c4.5,0,8.3,0.6,11.4,1.9c3.2,1.2,5.7,3,7.7,5.3c2,2.3,3.4,4.9,4.3,8.1c0.9,3.1,1.4,6.6,1.4,10.3c0,3.4-0.4,6.7-1.3,9.9
		s-2.3,6-4.3,8.4c-2,2.4-4.7,4.4-8,5.9c-3.3,1.5-7.4,2.2-12.2,2.2c-0.8,0-1.8,0-3.1-0.1c-1.3,0-2.6-0.1-4-0.2
		c-1.4-0.1-2.7-0.1-3.9-0.2c-1.2-0.1-2.2-0.2-2.8-0.3C81.2,66.6,81.2,16.1,81.2,16.1z M96.6,24.2c-1.1,0-2.1,0-3.2,0.1
		s-1.9,0.1-2.4,0.2v33.8c0.2,0,0.5,0.1,1,0.1c0.5,0,0.9,0,1.5,0.1c0.5,0,1,0,1.5,0.1c0.5,0,0.8,0,1.1,0c2.8,0,5.1-0.5,6.9-1.5
		c1.8-1,3.3-2.3,4.4-3.9s1.8-3.5,2.3-5.7s0.6-4.3,0.6-6.6c0-2-0.2-3.9-0.6-5.9c-0.4-2-1.1-3.8-2.1-5.4c-1-1.6-2.4-2.9-4.2-3.9
		C101.6,24.7,99.4,24.2,96.6,24.2z"/>
	<path class="st2" d="M173.6,44.2l0.9,8.9h0.3l1-9.1l8.8-28h6.5l8.6,28.2l1,8.9h0.3l1.1-9.1l6.2-28h9.9l-13.9,50.8h-6.6l-9-28
		l-1.2-7.7h-0.4l-1.2,7.8L177,66.9h-7l-13.8-50.8h10.7L173.6,44.2z"/>
	<path class="st2" d="M222.6,16.1h29.9v8.8h-20v11.7h18.2v8.8h-18.2v12.3h20.4v8.8h-30.2V16.1z"/>
	<path class="st2" d="M294.1,27.8c0,1.2-0.2,2.5-0.5,3.7c-0.3,1.2-0.8,2.4-1.5,3.4c-0.7,1-1.6,1.9-2.8,2.7s-2.5,1.4-4.2,1.8v0.4
		c1.4,0.2,2.8,0.6,4.1,1.2s2.4,1.4,3.4,2.4s1.7,2.2,2.3,3.7c0.5,1.4,0.8,3.1,0.8,5.1c0,2.6-0.6,4.8-1.7,6.7
		c-1.1,1.9-2.6,3.4-4.4,4.6c-1.8,1.2-3.9,2.1-6.3,2.7c-2.4,0.6-4.8,0.9-7.3,0.9c-0.8,0-1.9,0-3.1,0s-2.6,0-4.1-0.1
		c-1.5-0.1-3-0.2-4.5-0.3c-1.5-0.1-2.9-0.4-4.1-0.6V16.5c0.9-0.1,2-0.3,3.1-0.4c1.2-0.1,2.4-0.3,3.8-0.4c1.3-0.1,2.7-0.2,4.1-0.2
		s2.8-0.1,4.2-0.1c2.4,0,4.6,0.2,6.9,0.5c2.2,0.4,4.2,1,6,1.9c1.8,0.9,3.2,2.2,4.2,3.8C293.5,23.3,294.1,25.3,294.1,27.8z M273,37.3
		c0.7,0,1.5,0,2.3-0.1c0.9,0,1.6-0.1,2.2-0.2c1.8-0.6,3.4-1.4,4.7-2.6c1.3-1.1,2-2.6,2-4.5c0-1.2-0.2-2.3-0.7-3.1
		c-0.5-0.8-1.1-1.4-1.9-1.9c-0.8-0.5-1.7-0.8-2.7-1c-1-0.2-2.1-0.3-3.2-0.3c-1.2,0-2.4,0-3.5,0.1c-1.1,0-1.9,0.1-2.4,0.2v13.3
		L273,37.3L273,37.3z M276.1,58.9c1.2,0,2.3-0.1,3.4-0.4s2.1-0.7,2.9-1.3c0.8-0.6,1.5-1.3,2-2.2c0.5-0.9,0.8-2,0.8-3.2
		c0-1.6-0.3-2.8-0.9-3.7c-0.6-0.9-1.4-1.6-2.4-2.1c-1-0.5-2.1-0.8-3.3-1c-1.2-0.1-2.5-0.2-3.7-0.2h-5.2v13.8
		c0.2,0.1,0.6,0.2,1.1,0.2c0.5,0,1.1,0.1,1.7,0.1c0.6,0,1.2,0,1.8,0.1S275.6,58.9,276.1,58.9z"/>
	<path class="st2" d="M336.8,64.4c-1.5,1.1-3.5,1.9-5.9,2.4c-2.4,0.5-4.8,0.7-7.3,0.7c-3,0-5.9-0.5-8.6-1.4
		c-2.7-0.9-5.1-2.4-7.2-4.5c-2.1-2.1-3.7-4.8-4.9-8.1c-1.2-3.3-1.8-7.4-1.8-12.1c0-4.9,0.7-9.1,2.1-12.4c1.4-3.3,3.1-6,5.3-8.1
		s4.6-3.5,7.3-4.4c2.7-0.9,5.4-1.3,8.1-1.3c2.9,0,5.3,0.2,7.3,0.6c2,0.4,3.6,0.8,4.9,1.4l-1.9,8.4c-1.1-0.5-2.4-0.9-3.9-1.2
		c-1.5-0.2-3.3-0.4-5.5-0.4c-4,0-7.2,1.4-9.6,4.3c-2.4,2.8-3.6,7.2-3.6,13.2c0,2.6,0.3,5,0.9,7.1c0.6,2.1,1.5,4,2.6,5.5
		c1.2,1.5,2.6,2.7,4.4,3.5c1.8,0.8,3.8,1.3,6.1,1.3c2.2,0,4-0.2,5.5-0.6c1.5-0.4,2.8-1,3.9-1.7L336.8,64.4z"/>
	<path class="st2" d="M364.6,55.3h-15.5l-3.8,11.2h-9.9l18.1-50.8h7.3L379,66.5h-10.4L364.6,55.3z M351.7,47.4h10.8l-3.7-11.2
		l-1.5-7.9h-0.4l-1.5,8L351.7,47.4z"/>
	<path class="st2" d="M422.4,40.4l1.1-10h-0.4l-3.1,8.1l-10.7,18.8h-3.2l-11.3-18.9l-3.2-8h-0.4l1.4,9.9v26.2h-9.4V16.1h9l13.5,23
		l2.4,5.8h0.3l2.2-5.9l12.7-22.9h8.9v50.4h-9.9L422.4,40.4L422.4,40.4z"/>
	<path class="st2" d="M440.9,16.6c2-0.4,4.2-0.7,6.7-0.9c2.4-0.2,4.8-0.3,7.2-0.3c2.5,0,5,0.2,7.5,0.6c2.5,0.4,4.8,1.2,6.8,2.4
		s3.7,2.9,4.9,5.1c1.3,2.2,1.9,5,1.9,8.5c0,3.2-0.6,5.8-1.7,8c-1.1,2.2-2.6,4-4.4,5.4c-1.8,1.4-3.9,2.4-6.2,3
		c-2.3,0.6-4.7,0.9-7.2,0.9c-0.2,0-0.6,0-1.2,0s-1.1,0-1.7,0c-0.6,0-1.1-0.1-1.7-0.1c-0.6,0-0.9-0.1-1.2-0.1v17.4h-9.9L440.9,16.6
		L440.9,16.6z M455.6,23.9c-1,0-1.9,0-2.7,0.1c-0.9,0.1-1.6,0.2-2.1,0.3v16.3c0.2,0,0.5,0.1,0.9,0.1c0.4,0,0.8,0.1,1.2,0.1
		c0.4,0,0.9,0,1.3,0c0.4,0,0.7,0,0.9,0c1.3,0,2.6-0.1,3.9-0.4c1.3-0.2,2.4-0.7,3.4-1.3c1-0.6,1.8-1.5,2.4-2.7
		c0.6-1.2,0.9-2.7,0.9-4.5c0-1.6-0.3-2.9-0.9-3.9c-0.6-1-1.3-1.9-2.3-2.5c-0.9-0.6-2-1.1-3.2-1.3C458.1,24,456.9,23.9,455.6,23.9z"
		/>
	<path class="st2" d="M123.9,16.1h29.9v8.8h-20v11.7H152v8.8h-18.2v12.3h20.4v8.8h-30.2V16.1z"/>
	<path class="st2" d="M43.6,16.6c2-0.4,4.2-0.7,6.7-0.9c2.4-0.2,4.8-0.3,7.2-0.3c2.5,0,5,0.2,7.5,0.6c2.5,0.4,4.8,1.2,6.8,2.4
		s3.7,2.9,4.9,5.1c1.3,2.2,1.9,5,1.9,8.5c0,3.2-0.6,5.8-1.7,8c-1.1,2.2-2.6,4-4.4,5.4c-1.8,1.4-3.9,2.4-6.2,3
		c-2.3,0.6-4.7,0.9-7.2,0.9c-0.2,0-0.6,0-1.2,0s-1.1,0-1.7,0c-0.6,0-1.1-0.1-1.7-0.1c-0.6,0-0.9-0.1-1.2-0.1v17.4h-9.9L43.6,16.6
		L43.6,16.6z M58.3,23.9c-1,0-1.9,0-2.7,0.1c-0.9,0.1-1.6,0.2-2.1,0.3v16.3c0.2,0,0.5,0.1,0.9,0.1c0.4,0,0.8,0.1,1.2,0.1
		c0.4,0,0.9,0,1.3,0c0.4,0,0.7,0,0.9,0c1.3,0,2.6-0.1,3.9-0.4c1.3-0.2,2.4-0.7,3.4-1.3c1-0.6,1.8-1.5,2.4-2.7
		c0.6-1.2,0.9-2.7,0.9-4.5c0-1.6-0.3-2.9-0.9-3.9c-0.6-1-1.3-1.9-2.3-2.5c-0.9-0.6-2-1.1-3.2-1.3C60.7,24,59.5,23.9,58.3,23.9z"/>
</g>
<rect x="5" y="11.3" class="st3" width="18" height="58.8"/>
</svg>
